Coordinates
version=1
nRows=27
nColumns=19
inDegrees=yes

Units are S.I. units (second, meters, Newtons, ...)
If the header above contains a line with 'inDegrees', this indicates whether rotational values are in degrees (yes) or radians (no).

endheader
time	pelvis_tilt	pelvis_list	pelvis_rotation	pelvis_tx	pelvis_ty	pelvis_tz	hip_flexion_r	hip_adduction_r	hip_rotation_r	knee_angle_r	knee_angle_r_beta	ankle_angle_r	hip_flexion_l	hip_adduction_l	hip_rotation_l	knee_angle_l	knee_angle_l_beta	ankle_angle_l
     11.62666667	    -10.91676616	     -1.74498248	      1.23214146	      2.23807603	      1.00493392	      1.03589696	     36.52369832	      3.93603456	     -7.03376816	     12.70911471	      0.22181590	      4.50223541	    -11.75489495	     -3.98268492	     -3.41997849	     69.20925136	      1.20792931	    -12.58429151
     11.63333333	    -10.59822441	     -1.65408540	      0.80779942	      2.23602444	      1.00110786	      1.03605531	     36.70336359	      3.93707672	     -7.38514893	     15.35073147	      0.26792081	      4.07160188	    -10.62971089	     -3.60106344	     -2.95230717	     74.16932272	      1.29449889	    -12.30744851
     11.64000000	     -9.86944162	     -1.80489504	      0.23433220	      2.23398823	      0.99733986	      1.03624830	     36.47203013	      4.17884178	     -7.81275257	     18.43102965	      0.32168215	      3.73723095	     -9.94715266	     -3.55374464	     -2.90180351	     78.95363749	      1.37800093	    -11.95245597
     11.64666667	    -10.28880773	     -1.56772912	     -0.34452806	      2.23135370	      0.99170459	      1.03624093	     37.70736475	      3.94708638	     -8.04844939	     22.30413861	      0.38928066	      3.65094910	     -7.79930876	     -3.04161988	     -2.74598676	     83.85726676	      1.46358541	    -11.51330522
     11.65333333	    -10.25381601	     -1.65793148	     -1.03401502	      2.22891198	      0.98631659	      1.03631798	     38.28332901	      4.08537530	     -8.17361238	     26.11799391	      0.45584499	      3.85524225	     -6.16093915	     -3.02121692	     -2.94461421	     88.52469399	      1.54504738	    -10.94090159
     11.66000000	    -10.17567161	     -1.80378003	     -1.73758803	      2.22653480	      0.98090291	      1.03635736	     38.67337185	      4.28809914	     -8.13156225	     29.90592592	      0.52195687	      4.46048909	     -4.50703618	     -3.12825459	     -3.21208330	     92.99171369	      1.62301158	    -10.26553646
     11.66666667	    -10.36258953	     -2.02170541	     -2.45069893	      2.22413642	      0.97523210	      1.03646968	     39.16378142	      4.61568234	     -7.88308106	     33.52376839	      0.58510014	      5.42952263	     -2.46599985	     -3.42763616	     -3.50377033	     97.30403487	      1.69827578	     -9.54865298
     11.67333333	    -10.40230650	     -2.37372975	     -3.11526870	      2.22179911	      0.97007117	      1.03667645	     39.23274451	      5.10509312	     -7.53028773	     36.79292004	      0.64215760	      6.86230281	     -0.50546212	     -3.98896399	     -3.76003179	    101.36854403	      1.76921485	     -8.67325123
     11.68000000	    -10.86470824	     -2.73467044	     -3.74101158	      2.21938326	      0.96487023	      1.03695945	     39.51077131	      5.65397071	     -7.07873729	     39.71410427	      0.69314188	      8.59387075	      2.08179947	     -4.65989239	     -3.88288448	    105.25162381	      1.83698738	     -7.87926229
     11.68666667	    -11.26466167	     -3.17637824	     -4.26148428	      2.21701087	      0.96041956	      1.03728273	     39.41255488	      6.27747377	     -6.63368544	     42.15445603	      0.73573405	     10.62423092	      4.74600615	     -5.51263122	     -3.83684043	    108.83925517	      1.89960336	     -7.06902556
     11.69333333	    -11.72703629	     -3.62036264	     -4.67667995	      2.21464057	      0.95665232	      1.03762165	     39.08911130	      6.88426056	     -6.22149334	     44.11952402	      0.77003096	     12.80767895	      7.66321251	     -6.41762401	     -3.58455410	    112.11423968	      1.95676262	     -6.27796088
     11.70000000	    -12.18498168	     -4.10079258	     -4.93865633	      2.21233914	      0.95373552	      1.03790716	     38.43159473	      7.47223787	     -5.89634465	     45.52877046	      0.79462695	     15.05381364	     10.77603903	     -7.38485017	     -3.08872843	    115.03773959	      2.00778732	     -5.54686762
     11.70666667	    -12.57420557	     -4.51032379	     -5.08450123	      2.21019068	      0.95179096	      1.03810058	     37.39502229	      7.94939886	     -5.59699160	     46.41551797	      0.81010361	     17.21698520	     14.00148996	     -8.22444788	     -2.43058830	    117.52088204	      2.05112633	     -4.88960927
     11.71333333	    -12.56197225	     -4.75843233	     -5.25777963	      2.20874657	      0.95129075	      1.03840121	     35.60305307	      8.29837218	     -5.14649784	     46.79105370	      0.81665795	     19.35953306	     16.78419687	     -8.84855973	     -1.92058412	    119.33604689	      2.08280693	     -4.25923559
     11.72000000	    -11.38050466	     -4.55562942	     -5.78809532	      2.20969009	      0.95404915	      1.03916516	     32.02349893	      8.35486816	     -4.04319675	     46.43939855	      0.81052041	     21.27748550	     17.81921268	     -8.94139577	     -2.27377917	    119.82619839	      2.09136169	     -3.69787432
     11.72666667	     -9.98382486	     -4.28848582	     -6.03065308	      2.21074068	      0.95782352	      1.03972257	     27.93370140	      8.13180849	     -3.11585062	     45.51457671	      0.79437922	     22.87629797	     18.73653356	     -8.86999259	     -2.48918617	    119.89699365	      2.09259730	     -3.09767689
     11.73333333	     -9.73320293	     -3.60133436	     -6.14808390	      2.21060503	      0.96029332	      1.04022529	     25.15889202	      7.51212369	     -2.16357561	     44.51487220	      0.77693109	     23.99067672	     21.25075790	     -8.36497926	     -2.62751815	    119.91826270	      2.09296852	     -2.49411683
     11.74000000	     -9.56453222	     -3.09295096	     -5.90914186	      2.20961793	      0.96250147	      1.04044018	     22.38391796	      6.90045689	     -1.71398313	     43.19258643	      0.75385285	     24.93966871	     24.08317934	     -8.02982107	     -2.47971106	    119.91899313	      2.09298127	     -1.70882091
     11.74666667	     -9.74453058	     -3.03410753	     -4.92635384	      2.20816321	      0.96427627	      1.03997253	     19.81334619	      6.49311495	     -2.32135130	     41.45517957	      0.72352938	     25.06375383	     27.61206840	     -7.86841911	     -1.46053492	    119.91141309	      2.09284897	     -0.94293803
     11.75333333	    -10.63979181	     -2.98747490	     -3.99664574	      2.20576136	      0.96468669	      1.03955775	     18.11770899	      6.27527799	     -2.83097658	     39.78467789	      0.69437362	     24.88537803	     32.04964388	     -7.65389548	     -0.50091425	    119.87668683	      2.09224288	     -0.15491609
     11.76000000	    -12.51148501	     -3.02327755	     -3.10641219	      2.20282763	      0.96349783	      1.03909074	     17.58454200	      6.22385594	     -3.39106456	     38.25382802	      0.66765525	     24.17534032	     37.61871270	     -7.36245288	      0.47257950	    119.74317489	      2.08991266	      0.57429053
     11.76666667	    -13.28594789	     -3.01852726	     -2.37507041	      2.20148521	      0.96445750	      1.03904835	     15.58088313	      6.18009571	     -3.72928615	     36.19756737	      0.63176673	     23.08432553	     41.45058247	     -7.05435793	      0.93531672	    118.80221129	      2.07348975	      1.36871383
     11.77333333	    -14.05482821	     -2.16448672	     -2.03818123	      2.20177546	      0.96679281	      1.03938199	     13.49468538	      5.36377817	     -3.42701025	     34.02482838	      0.59384528	     21.36792528	     44.56934534	     -6.13650875	      0.25663999	    116.85331169	      2.03947503	      2.05136228
     11.78000000	    -14.30776641	     -1.43900277	     -1.39910559	      2.20297704	      0.97016117	      1.03947955	     10.64594059	      4.59337376	     -3.58180657	     31.37005452	      0.54751074	     18.97089102	     46.86336045	     -5.15882741	     -0.26851039	    114.49071293	      1.99823990	      2.70880548
     11.78666667	    -14.54751908	     -0.48408491	     -0.95094659	      2.20461095	      0.97389608	      1.03968510	      7.82757477	      3.63105717	     -3.51407915	     28.69131556	      0.50075792	     16.05466643	     48.78864020	     -4.11859617	     -1.20139878	    111.70893170	      1.94968866	      3.34937651
     11.79333333	    -14.78432014	      0.53431344	     -0.54286754	      2.20657377	      0.97782914	      1.03989301	      5.05148253	      2.60369783	     -3.45860511	     25.96139543	      0.45311183	     12.58532335	     50.44748892	     -3.07345592	     -2.26095240	    108.59589878	      1.89535599	      3.92328571
     11.80000000	    -15.07469863	      1.54993051	     -0.07323138	      2.20885375	      0.98177814	      1.03991420	      2.38266362	      1.56044742	     -3.59982857	     23.21435422	      0.40516691	      8.66273029	     51.94200599	     -1.96615400	     -3.28426938	    105.20117991	      1.83610697	      4.41823404
